# xmcd CD database file
# Copyright (C) 1993-1998 Ti Kan
#
# Track frame offsets:
#  150
#  11785
#  24800
#  37275
#  48487
#  59645
#  69527
#  82635
#  108240
#  128330
#  143172
#  154060
#  169502
#  182817
#  193810
#  204282
#  214437
#  226045
#  246745
#  263900
#
# Disc length: 3714 seconds
#
# Revision: 1
# Processed by: cddbd v1.4b41PL1 Copyright (c) Steve Scherf et al.
# Submitted via: CDWizzard Release:4.61
#
DISCID=180e8014
DTITLE=Various Artist - Simply Soul - Knock on Wood
DYEAR=1900
DGENRE=
TTITLE0=Barefoolin'
TTITLE1=When A Man Loves A Woman
TTITLE2=For Your Precious Love
TTITLE3=So Many Ways
TTITLE4=Save The Last Dance For Me
TTITLE5=Operator
TTITLE6=Soul Man
TTITLE7=Me and Mrs. Jones (Live)
TTITLE8=If You Don't Know Me By Now (Live)
TTITLE9=Feel The Need In Me
TTITLE10=Walking The Dog
TTITLE11=Show And Tell
TTITLE12=I Stand Accused
TTITLE13=It's Just A Matter Of Time
TTITLE14=I Got You (I Feel Good) (Live)
TTITLE15=There Goes My Baby
TTITLE16=Soul Sister, Brown Sugar
TTITLE17=You've Made Me So Very Happy
TTITLE18=Try A Little Tenderness
TTITLE19=Knock On Wood
EXTD=
EXTT0=
EXTT1=
EXTT2=
EXTT3=
EXTT4=
EXTT5=
EXTT6=
EXTT7=
EXTT8=
EXTT9=
EXTT10=
EXTT11=
EXTT12=
EXTT13=
EXTT14=
EXTT15=
EXTT16=
EXTT17=
EXTT18=
EXTT19=
PLAYORDER=
